<svg width="24" height="25" viewBox="0 0 24 25" fill="none" xmlns="http://www.w3.org/2000/svg">
<path d="M21.3187 19.2523L15.232 13.391C16.1766 12.2152 16.6875 10.7775 16.6875 9.26534C16.6875 7.45527 15.9539 5.75805 14.6273 4.47836C13.3008 3.19867 11.5336 2.49451 9.65625 2.49451C7.77891 2.49451 6.01172 3.20093 4.68516 4.47836C3.35625 5.75579 2.625 7.45527 2.625 9.26534C2.625 11.0732 3.35859 12.7749 4.68516 14.0523C6.01172 15.332 7.77656 16.0362 9.65625 16.0362C11.2266 16.0362 12.7172 15.5442 13.9383 14.6369L20.025 20.4959C20.0428 20.5131 20.064 20.5267 20.0874 20.536C20.1107 20.5453 20.1357 20.5501 20.1609 20.5501C20.1862 20.5501 20.2112 20.5453 20.2345 20.536C20.2578 20.5267 20.279 20.5131 20.2969 20.4959L21.3187 19.5141C21.3366 19.4969 21.3508 19.4765 21.3604 19.4541C21.3701 19.4316 21.3751 19.4075 21.3751 19.3832C21.3751 19.3589 21.3701 19.3348 21.3604 19.3124C21.3508 19.2899 21.3366 19.2695 21.3187 19.2523V19.2523ZM13.3688 12.8403C12.375 13.795 11.0578 14.3209 9.65625 14.3209C8.25469 14.3209 6.9375 13.795 5.94375 12.8403C4.95234 11.8834 4.40625 10.615 4.40625 9.26534C4.40625 7.91569 4.95234 6.64503 5.94375 5.69034C6.9375 4.73565 8.25469 4.20978 9.65625 4.20978C11.0578 4.20978 12.3773 4.7334 13.3688 5.69034C14.3602 6.64728 14.9062 7.91569 14.9062 9.26534C14.9062 10.615 14.3602 11.8857 13.3688 12.8403Z" fill="#9C9C9C"/>
</svg>
